<svg xmlns="http://www.w3.org/2000/svg" xmlns:xlink="http://www.w3.org/1999/xlink" width="640" zoomAndPan="magnify" viewBox="0 0 480 359.999987" height="480" preserveAspectRatio="xMidYMid meet" version="1.0"><defs><clipPath id="e94461b917"><path d="M 120.34375 60.339844 L 359.589844 60.339844 L 359.589844 299.589844 L 120.34375 299.589844 Z M 120.34375 60.339844 " clip-rule="nonzero"/></clipPath><clipPath id="2d376cfc8c"><path d="M 146.65625 227.367188 L 173.292969 227.367188 L 173.292969 254.628906 L 146.65625 254.628906 Z M 146.65625 227.367188 " clip-rule="nonzero"/></clipPath><clipPath id="9968729878"><path d="M 159.976562 227.367188 C 167.332031 227.367188 173.292969 233.332031 173.292969 240.6875 L 173.292969 241.246094 C 173.292969 248.601562 167.332031 254.5625 159.976562 254.5625 C 152.621094 254.5625 146.65625 248.601562 146.65625 241.246094 L 146.65625 240.6875 C 146.65625 233.332031 152.621094 227.367188 159.976562 227.367188 Z M 159.976562 227.367188 " clip-rule="nonzero"/></clipPath><clipPath id="160b825cf8"><path d="M 0.65625 0.367188 L 27.292969 0.367188 L 27.292969 27.628906 L 0.65625 27.628906 Z M 0.65625 0.367188 " clip-rule="nonzero"/></clipPath><clipPath id="9f554743e4"><path d="M 13.976562 0.367188 C 21.332031 0.367188 27.292969 6.332031 27.292969 13.6875 L 27.292969 14.246094 C 27.292969 21.601562 21.332031 27.5625 13.976562 27.5625 C 6.621094 27.5625 0.65625 21.601562 0.65625 14.246094 L 0.65625 13.6875 C 0.65625 6.332031 6.621094 0.367188 13.976562 0.367188 Z M 13.976562 0.367188 " clip-rule="nonzero"/></clipPath><clipPath id="db390e7740"><rect x="0" width="28" y="0" height="28"/></clipPath></defs><g clip-path="url(#e94461b917)"><path fill="#000000" d="M 240.003906 299.652344 C 305.898438 299.652344 359.652344 245.898438 359.652344 179.988281 C 359.652344 114.09375 305.898438 60.339844 240.003906 60.339844 C 174.09375 60.339844 120.339844 114.09375 120.339844 179.988281 C 120.339844 245.898438 174.09375 299.652344 240.003906 299.652344 Z M 240.003906 299.652344 " fill-opacity="1" fill-rule="evenodd"/></g><path fill="#000000" d="M 279.628906 149.707031 L 282.484375 149.707031 C 285.878906 149.707031 288.640625 152.46875 288.640625 155.863281 L 288.640625 204.128906 C 288.640625 207.523438 285.878906 210.285156 282.484375 210.285156 L 219.058594 210.285156 L 201.8125 227.53125 C 212.613281 236.210938 226.085938 240.96875 240 240.96875 C 273.617188 240.96875 300.96875 213.613281 300.96875 179.992188 C 300.96875 166.078125 296.210938 152.605469 287.53125 141.804688 Z M 279.628906 149.707031 " fill-opacity="1" fill-rule="nonzero"/><path fill="#000000" d="M 191.351562 204.128906 L 191.351562 155.863281 C 191.351562 152.46875 194.117188 149.707031 197.515625 149.707031 L 199.960938 149.707031 L 199.960938 145.503906 C 199.960938 144.339844 200.902344 143.398438 202.0625 143.398438 L 212.203125 143.398438 C 213.363281 143.398438 214.304688 144.339844 214.304688 145.503906 L 214.304688 149.707031 L 218.898438 149.707031 L 225.109375 138.957031 C 225.488281 138.308594 226.179688 137.90625 226.929688 137.90625 L 253.070312 137.90625 C 253.820312 137.90625 254.515625 138.308594 254.890625 138.960938 L 261.039062 149.609375 L 278.1875 132.460938 C 267.386719 123.78125 253.914062 119.023438 240 119.023438 C 206.378906 119.023438 179.023438 146.375 179.023438 179.992188 C 179.023438 193.914062 183.78125 207.386719 192.460938 218.179688 L 200.359375 210.285156 L 197.515625 210.285156 C 194.117188 210.285156 191.351562 207.523438 191.351562 204.128906 Z M 191.351562 204.128906 " fill-opacity="1" fill-rule="nonzero"/><path fill="#ffffff" d="M 240 105.808594 C 220.183594 105.808594 201.554688 113.527344 187.539062 127.535156 C 173.527344 141.546875 165.808594 160.175781 165.808594 179.992188 C 165.808594 199.808594 173.527344 218.4375 187.539062 232.453125 C 201.554688 246.464844 220.183594 254.183594 240 254.183594 C 259.816406 254.183594 278.445312 246.464844 292.457031 232.453125 C 306.464844 218.4375 314.183594 199.808594 314.183594 179.992188 C 314.183594 160.175781 306.464844 141.546875 292.457031 127.535156 C 278.445312 113.527344 259.816406 105.808594 240 105.808594 Z M 240 249.976562 C 201.410156 249.976562 170.015625 218.582031 170.015625 179.992188 C 170.015625 141.40625 201.410156 110.015625 240 110.015625 C 278.585938 110.015625 309.976562 141.40625 309.976562 179.992188 C 309.976562 218.582031 278.585938 249.976562 240 249.976562 Z M 240 249.976562 " fill-opacity="1" fill-rule="nonzero"/><path fill="#ffffff" d="M 206.125 158.101562 C 203.007812 158.101562 200.46875 160.632812 200.46875 163.746094 C 200.46875 166.859375 203.007812 169.390625 206.125 169.390625 C 209.234375 169.390625 211.769531 166.859375 211.769531 163.746094 C 211.769531 160.632812 209.234375 158.101562 206.125 158.101562 Z M 206.125 165.1875 C 205.324219 165.1875 204.675781 164.539062 204.675781 163.746094 C 204.675781 162.953125 205.324219 162.308594 206.125 162.308594 C 206.917969 162.308594 207.5625 162.953125 207.5625 163.746094 C 207.5625 164.539062 206.917969 165.1875 206.125 165.1875 Z M 206.125 165.1875 " fill-opacity="1" fill-rule="nonzero"/><path fill="#ffffff" d="M 287.742188 136.589844 C 287.160156 136.566406 286.59375 136.792969 286.183594 137.203125 L 257.886719 165.503906 C 257.867188 165.519531 257.851562 165.535156 257.835938 165.550781 L 232.511719 190.882812 C 232.460938 190.925781 232.410156 190.976562 232.363281 191.027344 L 216.765625 206.625 C 216.71875 206.671875 216.667969 206.71875 216.625 206.769531 L 197.210938 226.183594 C 196.800781 226.59375 196.578125 227.160156 196.597656 227.746094 C 196.617188 228.328125 196.882812 228.875 197.324219 229.257812 C 209.160156 239.523438 224.316406 245.175781 240 245.175781 C 257.40625 245.175781 273.773438 238.394531 286.082031 226.082031 C 298.394531 213.769531 305.175781 197.402344 305.175781 179.992188 C 305.175781 164.308594 299.523438 149.152344 289.257812 137.3125 C 288.875 136.871094 288.328125 136.609375 287.742188 136.589844 Z M 252.925781 176.410156 C 253.039062 177.097656 253.09375 177.796875 253.09375 178.5 C 253.09375 185.722656 247.21875 191.597656 240 191.597656 C 239.292969 191.597656 238.597656 191.539062 237.910156 191.429688 Z M 234.449219 194.890625 C 236.234375 195.492188 238.09375 195.800781 240 195.800781 C 249.539062 195.800781 257.300781 188.042969 257.300781 178.5 C 257.300781 176.597656 256.988281 174.738281 256.386719 172.953125 L 258.738281 170.601562 C 259.785156 173.085938 260.332031 175.773438 260.332031 178.5 C 260.332031 189.71875 251.210938 198.839844 240 198.839844 C 237.265625 198.839844 234.578125 198.292969 232.09375 197.246094 Z M 228.925781 200.414062 C 232.339844 202.140625 236.132812 203.046875 240 203.046875 C 253.53125 203.046875 264.539062 192.035156 264.539062 178.5 C 264.539062 174.644531 263.628906 170.851562 261.902344 167.433594 L 275.421875 153.914062 L 282.484375 153.914062 C 283.558594 153.914062 284.433594 154.789062 284.433594 155.863281 L 284.433594 204.128906 C 284.433594 205.203125 283.558594 206.078125 282.484375 206.078125 L 223.261719 206.078125 Z M 240 240.96875 C 226.085938 240.96875 212.613281 236.210938 201.8125 227.53125 L 219.058594 210.285156 L 282.484375 210.285156 C 285.878906 210.285156 288.640625 207.523438 288.640625 204.128906 L 288.640625 155.863281 C 288.640625 152.46875 285.878906 149.707031 282.484375 149.707031 L 279.628906 149.707031 L 287.53125 141.804688 C 296.210938 152.605469 300.96875 166.078125 300.96875 179.992188 C 300.96875 213.613281 273.617188 240.96875 240 240.96875 Z M 240 240.96875 " fill-opacity="1" fill-rule="nonzero"/><path fill="#ffffff" d="M 207.007812 209.582031 L 223.28125 193.3125 C 223.34375 193.257812 223.398438 193.199219 223.453125 193.140625 L 228.507812 188.082031 C 228.554688 188.039062 228.601562 187.996094 228.640625 187.949219 L 263.277344 153.316406 C 263.292969 153.304688 263.304688 153.289062 263.320312 153.277344 L 282.789062 133.808594 C 283.199219 133.398438 283.421875 132.832031 283.402344 132.246094 C 283.382812 131.664062 283.121094 131.117188 282.679688 130.734375 C 270.839844 120.46875 255.683594 114.816406 240 114.816406 C 222.589844 114.816406 206.222656 121.597656 193.910156 133.90625 C 181.597656 146.21875 174.816406 162.585938 174.816406 179.992188 C 174.816406 195.683594 180.46875 210.839844 190.734375 222.671875 C 191.117188 223.113281 191.664062 223.375 192.25 223.394531 C 192.273438 223.394531 192.296875 223.394531 192.324219 223.394531 C 192.878906 223.394531 193.414062 223.175781 193.808594 222.78125 L 206.84375 209.746094 C 206.902344 209.695312 206.957031 209.640625 207.007812 209.582031 Z M 227.683594 182.960938 C 227.171875 181.546875 226.90625 180.039062 226.90625 178.5 C 226.90625 171.28125 232.78125 165.40625 240 165.40625 C 241.53125 165.40625 243.035156 165.675781 244.457031 166.1875 Z M 247.65625 162.988281 C 245.285156 161.816406 242.667969 161.203125 240 161.203125 C 230.460938 161.203125 222.699219 168.960938 222.699219 178.5 C 222.699219 181.183594 223.3125 183.796875 224.484375 186.160156 L 222.238281 188.40625 C 220.546875 185.390625 219.660156 182.011719 219.660156 178.5 C 219.660156 167.292969 228.785156 158.171875 240 158.171875 C 243.515625 158.171875 246.894531 159.054688 249.90625 160.738281 Z M 192.460938 218.179688 C 183.78125 207.386719 179.023438 193.914062 179.023438 179.992188 C 179.023438 146.375 206.378906 119.023438 240 119.023438 C 253.914062 119.023438 267.386719 123.78125 278.1875 132.460938 L 261.039062 149.609375 L 254.890625 138.960938 C 254.515625 138.308594 253.820312 137.90625 253.070312 137.90625 L 226.929688 137.90625 C 226.179688 137.90625 225.488281 138.308594 225.109375 138.957031 L 218.898438 149.707031 L 214.304688 149.707031 L 214.304688 145.503906 C 214.304688 144.339844 213.363281 143.398438 212.203125 143.398438 L 202.0625 143.398438 C 200.902344 143.398438 199.960938 144.339844 199.960938 145.503906 L 199.960938 149.707031 L 197.515625 149.707031 C 194.117188 149.707031 191.351562 152.46875 191.351562 155.863281 L 191.351562 204.128906 C 191.351562 207.523438 194.117188 210.285156 197.515625 210.285156 L 200.359375 210.285156 Z M 210.097656 147.605469 L 210.097656 149.707031 L 204.164062 149.707031 L 204.164062 147.605469 Z M 197.515625 206.078125 C 196.4375 206.078125 195.558594 205.203125 195.558594 204.128906 L 195.558594 155.863281 C 195.558594 154.789062 196.4375 153.914062 197.515625 153.914062 L 220.113281 153.914062 C 220.863281 153.914062 221.558594 153.511719 221.933594 152.863281 L 228.144531 142.113281 L 251.855469 142.113281 L 257.960938 152.6875 L 252.976562 157.671875 C 249.089844 155.242188 244.640625 153.964844 240 153.964844 C 226.464844 153.964844 215.453125 164.972656 215.453125 178.5 C 215.453125 183.136719 216.734375 187.585938 219.167969 191.476562 L 204.5625 206.078125 Z M 197.515625 206.078125 " fill-opacity="1" fill-rule="nonzero"/><g clip-path="url(#2d376cfc8c)"><g clip-path="url(#9968729878)"><g transform="matrix(1, 0, 0, 1, 146, 227)"><g clip-path="url(#db390e7740)"><g clip-path="url(#160b825cf8)"><g clip-path="url(#9f554743e4)"><path fill="#000000" d="M 0.65625 0.367188 L 27.292969 0.367188 L 27.292969 27.527344 L 0.65625 27.527344 Z M 0.65625 0.367188 " fill-opacity="1" fill-rule="nonzero"/></g></g></g></g></g></g></svg>